{"asset":{"version":"2.0","generator":"babylon.js glTF exporter for Maya 2018 v20200407.8"},"scene":0,"scenes":[{"nodes":[0]}],"nodes":[{"mesh":0,"name":"bigPot_geo"}],"meshes":[{"primitives":[{"attributes":{"POSITION":1,"TANGENT":2,"NORMAL":3,"TEXCOORD_0":4},"indices":0,"material":0}],"name":"bigPot_geo"}],"accessors":[{"bufferView":0,"componentType":5123,"count":20832,"type":"SCALAR","name":"accessorIndices"},{"bufferView":1,"componentType":5126,"count":20832,"max":[0.0134023605,0.0187560748,0.0134022068],"min":[-0.0134023605,-1.22068059E-05,-0.0134024136],"type":"VEC3","name":"accessorPositions"},{"bufferView":2,"componentType":5126,"count":20832,"type":"VEC4","name":"accessorTangents"},{"bufferView":1,"byteOffset":249984,"componentType":5126,"count":20832,"type":"VEC3","name":"accessorNormals"},{"bufferView":3,"componentType":5126,"count":20832,"type":"VEC2","name":"accessorUVs"}],"bufferViews":[{"buffer":0,"byteLength":41664,"name":"bufferViewScalar"},{"buffer":0,"byteOffset":41664,"byteLength":499968,"byteStride":12,"name":"bufferViewFloatVec3"},{"buffer":0,"byteOffset":541632,"byteLength":333312,"byteStride":16,"name":"bufferViewFloatVec4"},{"buffer":0,"byteOffset":874944,"byteLength":166656,"byteStride":8,"name":"bufferViewFloatVec2"}],"buffers":[{"uri":"start.bin","byteLength":1041600}],"materials":[{"pbrMetallicRoughness":{"baseColorFactor":[0.5,0.5,0.5,1.0],"metallicFactor":0.0,"roughnessFactor":0.450053632},"name":"lambert1"}]}